<svg width="1353" height="630" viewBox="0 0 1353 630" fill="none" xmlns="http://www.w3.org/2000/svg">
<path d="M742 535.27C940.883 535.27 1077.34 644.011 1251.27 535.27C1425.2 426.529 1042.09 698.385 1251.27 577.171" stroke="#C77C25" stroke-width="2"/>
<path d="M754 555.27C952.883 555.27 1089.34 664.011 1263.27 555.27C1437.2 446.529 1054.09 718.385 1263.27 597.171" stroke="#400E59" stroke-width="2"/>
<path d="M1 430C1 430 313.424 274.515 577.902 61.0347C842.38 -152.445 523.769 430 523.769 430C523.769 430 865.58 290.013 1034.17 88.0322C1202.75 -113.949 973.846 395.003 973.846 395.003C973.846 395.003 1364.38 371.505 1280.08 201.022" stroke="black"/>
<path d="M61 432C61 432 373.424 276.515 637.902 63.0347C902.38 -150.445 583.769 432 583.769 432C583.769 432 925.58 292.013 1094.17 90.0322C1262.75 -111.949 1033.85 397.003 1033.85 397.003C1033.85 397.003 1424.38 373.505 1340.08 203.022" stroke="#3B7197"/>
<path d="M1314 219L1333.05 249.75H1294.95L1314 219Z" fill="#9E81AD"/>
<rect x="298.204" y="203.912" width="48.6728" height="48.2995" transform="rotate(43.5521 298.204 203.912)" fill="white"/>
<rect x="298.221" y="204.619" width="47.6728" height="47.2995" transform="rotate(43.5521 298.221 204.619)" stroke="black" stroke-opacity="0.68"/>
<line x1="333.354" y1="201.354" x2="259.354" y2="275.354" stroke="white"/>
<line x1="261.346" y1="200.639" x2="336.951" y2="272.998" stroke="black"/>
</svg>
